<svg width="341" height="182" viewBox="0 0 341 182" fill="none" xmlns="http://www.w3.org/2000/svg">
<path d="M1.625 88V0.72727H39.2955C45.7727 0.72727 51.4403 2.00568 56.2983 4.5625C61.1563 7.11932 64.9347 10.7131 67.6335 15.3438C70.3324 19.9744 71.6818 25.3864 71.6818 31.5795C71.6818 37.8295 70.2898 43.2415 67.5057 47.8153C64.75 52.3892 60.8722 55.9119 55.8722 58.3835C50.9006 60.8551 45.0909 62.0909 38.4432 62.0909H15.9432V43.6818H33.6705C36.4545 43.6818 38.8267 43.1989 40.7869 42.233C42.7756 41.2386 44.2955 39.8324 45.3466 38.0142C46.4261 36.196 46.9659 34.0511 46.9659 31.5795C46.9659 29.0795 46.4261 26.9489 45.3466 25.1875C44.2955 23.3977 42.7756 22.0341 40.7869 21.0966C38.8267 20.1307 36.4545 19.6477 33.6705 19.6477H25.3182V88H1.625ZM104.068 0.72727V88H80.375V0.72727H104.068ZM140.695 0.72727L155.013 26.125H155.695L170.183 0.72727H196.604L170.524 44.3636L197.626 88H170.524L155.695 62.0909H155.013L140.183 88H113.251L140.013 44.3636L114.104 0.72727H140.695ZM206.82 88V0.72727H269.718V19.8182H230.513V34.8182H266.479V53.9091H230.513V68.9091H269.548V88H206.82ZM281.469 88V0.72727H305.162V68.9091H340.446V88H281.469ZM25.334 142.781H44.1113C47.196 142.781 49.8014 141.748 51.9277 139.682C54.084 137.585 55.1621 134.635 55.1621 130.832C55.1621 127.987 54.0391 125.441 51.793 123.195C49.5469 120.919 46.9863 119.781 44.1113 119.781H16.3496V178H13.1152V116.547H44.1113C47.8848 116.547 51.209 117.999 54.084 120.904C56.959 123.809 58.3965 127.118 58.3965 130.832C58.3965 135.414 57.0039 139.098 54.2188 141.883C51.4336 144.638 48.0645 146.016 44.1113 146.016H25.334V142.781ZM25.334 149.25H44.1113C47.2259 149.25 50.1009 148.501 52.7363 147.004C55.4017 145.477 57.543 143.29 59.1602 140.445C60.8073 137.6 61.6309 134.396 61.6309 130.832C61.6309 126.22 59.8639 122.147 56.3301 118.613C52.8262 115.079 48.7533 113.312 44.1113 113.312H9.88086V178H6.64648V110.078H44.1113C47.735 110.078 51.1491 111.036 54.3535 112.953C57.5579 114.87 60.1035 117.43 61.9902 120.635C63.9069 123.839 64.8652 127.238 64.8652 130.832C64.8652 134.905 63.9069 138.618 61.9902 141.973C60.0736 145.297 57.528 147.887 54.3535 149.744C51.209 151.571 47.7949 152.484 44.1113 152.484H25.334V149.25ZM25.334 155.719H44.1113C47.3158 155.719 50.3854 155.09 53.3203 153.832C56.2552 152.544 58.8008 150.822 60.957 148.666C63.1432 146.48 64.8802 143.844 66.168 140.76C67.4557 137.645 68.0996 134.336 68.0996 130.832C68.0996 126.639 67.0065 122.701 64.8203 119.018C62.6341 115.304 59.6842 112.354 55.9707 110.168C52.2871 107.952 48.334 106.844 44.1113 106.844H3.41211V178H0.177734V103.609H44.1113C48.903 103.609 53.3952 104.867 57.5879 107.383C61.7806 109.868 65.1198 113.208 67.6055 117.4C70.0911 121.593 71.334 126.07 71.334 130.832C71.334 135.085 70.6003 139.008 69.1328 142.602C67.6654 146.165 65.6888 149.13 63.2031 151.496C60.7174 153.862 57.8275 155.704 54.5332 157.021C51.2389 158.309 47.765 158.953 44.1113 158.953H25.334V155.719ZM22.8184 178H19.584V123.016H44.1113C46.2376 123.016 48.0645 123.794 49.5918 125.352C51.1491 126.909 51.9277 128.736 51.9277 130.832C51.9277 136.642 49.3223 139.547 44.1113 139.547H25.334V136.312H44.1113C45.5488 136.312 46.6719 135.908 47.4805 135.1C48.2891 134.291 48.6934 132.868 48.6934 130.832C48.6934 129.514 48.2441 128.421 47.3457 127.553C46.4772 126.684 45.3991 126.25 44.1113 126.25H22.8184V178ZM130.811 145.297V103.609H134.045V145.297C134.045 149.849 132.248 153.742 128.654 156.977C125.061 160.211 120.748 161.828 115.717 161.828C110.686 161.828 106.373 160.211 102.779 156.977C99.1855 153.742 97.3887 149.849 97.3887 145.297V103.609H100.623V145.297C100.623 148.951 102.09 152.08 105.025 154.686C107.99 157.291 111.554 158.594 115.717 158.594C119.88 158.594 123.428 157.291 126.363 154.686C129.328 152.08 130.811 148.951 130.811 145.297ZM137.279 145.297V103.609H140.514V145.297C140.514 148.411 139.855 151.391 138.537 154.236C137.219 157.051 135.452 159.492 133.236 161.559C131.02 163.625 128.385 165.272 125.33 166.5C122.275 167.698 119.071 168.297 115.717 168.297C112.363 168.297 109.158 167.698 106.104 166.5C103.049 165.272 100.413 163.625 98.1973 161.559C95.9811 159.492 94.2142 157.051 92.8965 154.236C91.5788 151.391 90.9199 148.411 90.9199 145.297V103.609H94.1543V145.297C94.1543 148.861 95.1126 152.17 97.0293 155.225C98.9759 158.249 101.596 160.645 104.891 162.412C108.215 164.179 111.824 165.062 115.717 165.062C119.61 165.062 123.204 164.179 126.498 162.412C129.822 160.645 132.443 158.249 134.359 155.225C136.306 152.17 137.279 148.861 137.279 145.297ZM143.748 145.297V103.609H146.982V145.297C146.982 149.28 146.144 153.098 144.467 156.752C142.82 160.376 140.604 163.505 137.818 166.141C135.033 168.776 131.709 170.872 127.846 172.43C123.982 173.987 119.939 174.766 115.717 174.766C111.494 174.766 107.451 173.987 103.588 172.43C99.7246 170.872 96.4004 168.776 93.6152 166.141C90.8301 163.505 88.599 160.376 86.9219 156.752C85.2747 153.098 84.4512 149.28 84.4512 145.297V103.609H87.6855V145.297C87.6855 150.029 88.9434 154.416 91.459 158.459C93.9746 162.472 97.3737 165.661 101.656 168.027C105.969 170.363 110.656 171.531 115.717 171.531C120.778 171.531 125.45 170.363 129.732 168.027C134.045 165.661 137.459 162.472 139.975 158.459C142.49 154.416 143.748 150.029 143.748 145.297ZM150.217 145.297V103.609H153.451V145.297C153.451 151.766 151.759 157.77 148.375 163.311C144.991 168.821 140.394 173.193 134.584 176.428C128.804 179.632 122.515 181.234 115.717 181.234C108.919 181.234 102.615 179.632 96.8047 176.428C91.0247 173.193 86.4427 168.821 83.0586 163.311C79.6745 157.77 77.9824 151.766 77.9824 145.297V103.609H81.2168V145.297C81.2168 149.699 82.1302 153.922 83.957 157.965C85.7839 162.008 88.2396 165.497 91.3242 168.432C94.4089 171.337 98.0775 173.658 102.33 175.395C106.613 177.132 111.075 178 115.717 178C120.359 178 124.806 177.132 129.059 175.395C133.341 173.658 137.025 171.337 140.109 168.432C143.194 165.497 145.65 162.008 147.477 157.965C149.303 153.922 150.217 149.699 150.217 145.297ZM161.717 103.609H164.951V178H161.717V103.609ZM181.123 103.609H184.357V161.828H210.232V165.062H184.357V168.297H210.232V171.531H184.357V174.766H210.232V178H181.123V103.609ZM174.654 103.609H177.889V178H174.654V103.609ZM168.186 103.609H171.42V178H168.186V103.609ZM247.473 132.719H242.037C239.731 132.719 238.069 132.135 237.051 130.967C236.033 129.769 235.523 128.197 235.523 126.25C235.523 121.938 238.743 119.781 245.182 119.781C251.231 119.781 255.783 120.68 258.838 122.477L256.232 124.453C254.136 123.495 250.452 123.016 245.182 123.016C242.606 123.016 240.869 123.3 239.971 123.869C239.102 124.438 238.668 125.232 238.668 126.25C238.668 127.268 238.908 128.062 239.387 128.631C239.866 129.2 240.749 129.484 242.037 129.484H247.607C251.65 129.484 255.289 130.173 258.523 131.551C261.788 132.928 264.468 134.815 266.564 137.211C268.661 139.577 270.263 142.317 271.371 145.432C272.479 148.516 273.033 151.826 273.033 155.359C273.033 158.234 272.629 160.96 271.82 163.535C271.012 166.111 269.784 168.477 268.137 170.633C266.52 172.789 264.558 174.661 262.252 176.248C259.976 177.805 257.251 179.018 254.076 179.887C250.932 180.785 247.518 181.234 243.834 181.234C238.054 181.234 232.633 180.351 227.572 178.584C222.541 176.847 218.348 174.406 214.994 171.262L217.6 169.33C220.654 172.085 224.473 174.227 229.055 175.754C233.667 177.251 238.593 178 243.834 178C247.937 178 251.635 177.416 254.93 176.248C258.254 175.05 260.979 173.418 263.105 171.352C265.262 169.285 266.909 166.889 268.047 164.164C269.215 161.439 269.799 158.504 269.799 155.359C269.799 151.197 268.96 147.438 267.283 144.084C265.606 140.7 263.046 137.96 259.602 135.863C256.188 133.767 252.145 132.719 247.473 132.719ZM242.037 135.953H247.158C253.238 135.953 257.984 137.81 261.398 141.523C264.842 145.237 266.564 149.849 266.564 155.359C266.564 160.96 264.573 165.602 260.59 169.285C256.607 172.939 251.021 174.766 243.834 174.766C239.042 174.766 234.565 174.107 230.402 172.789C226.24 171.471 222.781 169.615 220.025 167.219L222.541 165.197C224.997 167.204 228.081 168.761 231.795 169.869C235.538 170.977 239.551 171.531 243.834 171.531C250.153 171.531 254.975 170.019 258.299 166.994C261.653 163.969 263.33 160.091 263.33 155.359C263.33 150.688 261.923 146.824 259.107 143.77C256.322 140.715 252.324 139.188 247.113 139.188H242.037C237.665 139.188 234.385 137.99 232.199 135.594C230.013 133.198 228.92 130.083 228.92 126.25C228.92 122.417 230.268 119.302 232.963 116.906C235.688 114.51 239.761 113.312 245.182 113.312C248.985 113.312 252.519 113.762 255.783 114.66C259.048 115.529 261.743 116.786 263.869 118.434L261.309 120.41C257.565 117.835 252.189 116.547 245.182 116.547C240.66 116.547 237.35 117.445 235.254 119.242C233.188 121.009 232.154 123.345 232.154 126.25C232.154 129.185 232.918 131.536 234.445 133.303C236.003 135.07 238.533 135.953 242.037 135.953ZM242.037 142.422H246.979C251.351 142.422 254.63 143.635 256.816 146.061C259.003 148.486 260.096 151.586 260.096 155.359C260.096 159.193 258.733 162.307 256.008 164.703C253.312 167.099 249.255 168.297 243.834 168.297C240.031 168.297 236.482 167.863 233.188 166.994C229.923 166.096 227.228 164.823 225.102 163.176L227.662 161.199C231.406 163.775 236.796 165.062 243.834 165.062C248.356 165.062 251.65 164.179 253.717 162.412C255.813 160.615 256.861 158.264 256.861 155.359C256.861 152.454 256.083 150.118 254.525 148.352C252.968 146.555 250.438 145.656 246.934 145.656H242.037C235.898 145.656 231.091 143.829 227.617 140.176C224.173 136.492 222.451 131.85 222.451 126.25C222.451 120.65 224.443 116.023 228.426 112.369C232.409 108.686 237.994 106.844 245.182 106.844C249.973 106.844 254.436 107.503 258.568 108.82C262.731 110.138 266.19 111.995 268.945 114.391L266.43 116.412C263.974 114.406 260.889 112.848 257.176 111.74C253.462 110.632 249.464 110.078 245.182 110.078C238.863 110.078 234.026 111.59 230.672 114.615C227.348 117.64 225.686 121.518 225.686 126.25C225.686 130.952 227.093 134.83 229.908 137.885C232.723 140.91 236.766 142.422 242.037 142.422ZM242.037 148.891H246.979C249.285 148.891 250.947 149.49 251.965 150.688C252.983 151.885 253.492 153.443 253.492 155.359C253.492 159.672 250.273 161.828 243.834 161.828C237.755 161.828 233.188 160.93 230.133 159.133L232.738 157.156C234.835 158.115 238.533 158.594 243.834 158.594C246.41 158.594 248.132 158.309 249 157.74C249.898 157.171 250.348 156.378 250.348 155.359C250.348 154.371 250.093 153.592 249.584 153.023C249.105 152.424 248.206 152.125 246.889 152.125H242.037C237.904 152.125 234.161 151.451 230.807 150.104C227.482 148.756 224.742 146.899 222.586 144.533C220.46 142.167 218.827 139.427 217.689 136.312C216.551 133.198 215.982 129.844 215.982 126.25C215.982 123.375 216.387 120.65 217.195 118.074C218.004 115.499 219.217 113.133 220.834 110.977C222.481 108.82 224.443 106.964 226.719 105.406C229.025 103.819 231.75 102.591 234.895 101.723C238.069 100.824 241.498 100.375 245.182 100.375C250.962 100.375 256.367 101.258 261.398 103.025C266.43 104.762 270.622 107.203 273.977 110.348L271.371 112.279C268.316 109.524 264.498 107.398 259.916 105.9C255.334 104.373 250.423 103.609 245.182 103.609C241.079 103.609 237.365 104.208 234.041 105.406C230.747 106.574 228.021 108.191 225.865 110.258C223.739 112.324 222.092 114.72 220.924 117.445C219.786 120.171 219.217 123.105 219.217 126.25C219.217 130.473 220.07 134.276 221.777 137.66C223.484 141.044 226.09 143.77 229.594 145.836C233.098 147.872 237.245 148.891 242.037 148.891ZM296.393 178H293.158V103.609H296.393V178ZM289.924 178H286.689V103.609H289.924V178ZM283.455 178H280.221V103.609H283.455V178ZM302.861 161.828H337.271V165.062H302.861V168.297H337.271V171.531H302.861V174.766H337.271V178H299.627V103.609H337.271V106.844H302.861V110.078H337.271V113.312H302.861V116.547H337.271V119.781H302.861V132.719H320.516V135.953H302.861V139.188H320.516V142.422H302.861V145.656H320.516V148.891H302.861V161.828Z" fill="black"/>
</svg>
